<?xml version="1.0" standalone="no"?>
<svg viewBox="0 0 200 200" xmlns="http://www.w3.org/2000/svg">
  <path fill="#FFC053" d="M37.5,-60.9C51.1,-57.2,66.1,-52,68.6,-41.6C71,-31.3,60.8,-15.6,61,0.1C61.2,15.9,72,31.8,71.1,45C70.3,58.2,58,68.6,44.2,71.2C30.4,73.7,15.2,68.4,-0.1,68.5C-15.4,68.7,-30.9,74.5,-40.2,69.3C-49.5,64.2,-52.8,48.3,-60.2,34.9C-67.5,21.6,-79,10.8,-82.8,-2.2C-86.6,-15.2,-82.8,-30.4,-73.3,-40.1C-63.8,-49.8,-48.7,-54,-35.6,-58C-22.4,-62,-11.2,-65.7,0.4,-66.4C12,-67,24,-64.7,37.5,-60.9Z" transform="translate(100 100)" />
</svg>
